<?xml version="1.0" encoding="UTF-8" standalone="no"?>
<svg width="360px" height="80px" viewBox="0 0 360 80" version="1.1" xmlns="http://www.w3.org/2000/svg" xmlns:xlink="http://www.w3.org/1999/xlink" xmlns:sketch="http://www.bohemiancoding.com/sketch/ns">
    <!-- Generator: Sketch 3.3.2 (12043) - http://www.bohemiancoding.com/sketch -->
    <title>Artboard 6</title>
    <desc>Created with Sketch.</desc>
    <defs>
        <path id="path-1" d="M50.270081,29.2602583 C50.270081,29.2602583 51.3396025,29.2203894 51.4396883,31.2972781 C51.4396883,31.2972781 52.0194048,34.1788655 44.9367254,39.8752369 C44.9367254,39.8752369 40.505459,43.1771288 32.2803076,47.4493866 C32.2803076,47.4493866 31.7550765,47.7543056 31.3589843,47.4562888 C31.3589843,47.4562888 30.5489714,46.5681823 28.8807441,47.2345759 C28.8807441,47.2345759 28.8615913,47.2589621 28.8266313,47.300009 C28.704253,47.6159871 28.468542,47.9025081 28.1391941,48.0937085 C27.8920564,48.2371825 27.6259494,48.3069632 27.3675524,48.3123955 C27.2277563,48.3387835 27.0862542,48.3409883 26.9465954,48.3081047 L3.87163739,62.1099357 C3.86660195,62.1135394 3.86273846,62.1191841 3.85741002,62.1222775 C3.5711971,62.2884363 2.84237617,61.5576447 2.22973872,60.4906587 C1.62325402,59.4343884 1.35856673,58.446054 1.63021159,58.2645398 L1.63046532,58.2643925 C1.63336365,58.2623697 1.63502203,58.2593658 1.63832059,58.2574509 C1.64238034,58.255094 1.64761205,58.2547782 1.6519648,58.2529317 L25.316497,45.553928 C25.3937783,45.1399636 25.660885,44.7460879 26.0780251,44.5039204 C26.4127014,44.3096266 26.7833305,44.2492443 27.1208193,44.3043733 C27.1675332,44.299706 27.2149403,44.2956568 27.2637338,44.2928439 C27.2637338,44.2928439 27.8355434,43.8952287 28.4234834,42.6265639 L33.9664078,39.5267049 C35.7997156,38.3559145 37.0444033,37.8816546 40.9073983,35.390688 C44.3966399,33.1408542 47.6896493,30.2776288 47.6896493,30.2776288 C47.6896493,30.2776288 49.2213313,29.1489332 50.270081,29.2602583"></path>
        <path id="path-2" d="M3.46097219,33.1460413 L13.0662819,38.8423883 C13.0676956,38.8422416 13.0686222,38.841801 13.0698894,38.8418992 C13.2584089,38.9523352 13.5005825,38.8905233 13.6132331,38.7022222 C13.7201706,38.5234708 13.6711321,38.2962482 13.5078247,38.174699 C13.5051491,38.1697516 13.5035924,38.1668126 13.5035924,38.1668126 L4.02114879,32.2096778 C3.22435953,31.7794843 3.32421469,31.2468594 3.32421469,31.2468594 C3.75538469,30.891849 4.54718265,31.3863508 4.54718265,31.3863508 L14.3535644,36.8014525 C14.3610689,36.8033152 14.3665279,36.8036101 14.3736423,36.8055707 C14.374373,36.8060117 14.3747136,36.8065505 14.3754443,36.8069915 C14.4714072,36.8649036 14.5826421,36.862379 14.6757883,36.8186105 C14.734347,36.8016265 14.7703058,36.768671 14.7902372,36.7270429 C14.7969245,36.7180812 14.8063864,36.7127933 14.8122459,36.7029987 C14.9016047,36.5536311 14.8507289,36.3582934 14.6987471,36.2665746 C14.6907096,36.2617241 14.6816925,36.2612815 14.6734591,36.2573125 L4.8959959,30.6913618 C3.35524763,29.3326257 5.34948751,29.8335881 5.34948751,29.8335881 L10.1559067,32.0969795 L17.720555,35.7469744 C18.1119587,35.9355232 18.6107922,36.1705745 19.0186397,36.480692 C19.2774528,36.6775408 19.4994812,36.904847 19.6343165,37.1698494 C19.8621549,37.6179534 19.7738019,38.0598718 19.8277519,38.5276795 C19.8280431,38.528855 19.9734229,39.7896974 19.9734229,39.7896974 C20.1142317,40.9484669 20.899016,41.2541048 20.899016,41.2541048 L51.3260821,58.3203009 C51.3310027,58.3226039 51.3369488,58.3231928 51.34182,58.3261325 C51.6236196,58.4961944 51.3419053,59.4862943 50.7128786,60.5377443 C50.0838518,61.5891942 49.3458513,62.3035989 49.0640517,62.1335371 C49.0550399,62.1280986 49.0482732,62.1200157 49.0409205,62.1129123 L19.5766641,43.4085176 C18.4211328,42.9241308 17.4126953,43.5553154 17.4126953,43.5553154 L16.7157917,43.8962647 C15.6109905,44.571609 14.6374344,44.0717322 14.6374344,44.0717322 C14.211934,43.8149491 13.7435227,43.5739285 13.3078863,43.3146944 C12.5269267,42.8497291 11.7943441,42.3166439 11.0456087,41.8011389 C10.1342385,41.1734888 9.22604328,40.5394231 8.32014077,39.9037415 C7.34288205,39.2183322 6.36059503,38.5402197 5.37943051,37.860785 C4.59085536,37.3149051 3.80393926,36.7673603 3.01521763,36.2217253 C2.69559903,36.0001791 2.37671289,35.7774086 2.05724079,35.5556175 C0.581396461,33.8961153 2.63508076,34.6939014 2.63508076,34.6939014 L12.0535297,40.6460765 C12.0563571,40.6457832 12.0583074,40.6452938 12.0607447,40.6450983 C12.2382228,40.7335406 12.4557791,40.673536 12.5597868,40.499682 C12.6689216,40.3172576 12.6104373,40.0803353 12.428741,39.9706843 C12.4248441,39.9683325 12.4206047,39.9671072 12.4168048,39.9651473 C12.4087708,39.9569662 12.4029766,39.9511366 12.4029766,39.9511366 L2.99384468,34.0382444 C1.03276392,32.1918889 3.46097219,33.1460413 3.46097219,33.1460413"></path>
    </defs>
    <g id="Welcome" stroke="none" stroke-width="1" fill="none" fill-rule="evenodd" sketch:type="MSPage">
        <g id="Artboard-6" sketch:type="MSArtboardGroup">
            <text id="Today’s-Menu" sketch:type="MSTextLayer" font-family="Gill Sans" font-size="58" font-style="italic" font-weight="normal" sketch:alignment="middle" fill="#484848">
                <tspan x="62.9077148" y="60">Today’s Menu</tspan>
            </text>
            <g id="Knife-+-Fork-2-+-Rectangle-1-Copy" sketch:type="MSLayerGroup" transform="translate(0.000000, 9.000000)">
                <g id="Knife">
                    <use fill="none" sketch:type="MSShapeGroup" xlink:href="#path-1"></use>
                    <use fill="#484848" fill-rule="evenodd" xlink:href="#path-1"></use>
                </g>
                <g id="Fork-2">
                    <use fill="none" sketch:type="MSShapeGroup" xlink:href="#path-2"></use>
                    <use fill="#484848" fill-rule="evenodd" xlink:href="#path-2"></use>
                </g>
                <path d="M35.6226318,15.7319036 L35.6226318,25.7804519 L16.7811995,25.7804519 L16.7811995,15.4316986 C13.5912017,15.2106429 11.0716746,12.538587 11.0716746,9.2748104 C11.0716746,5.86628861 13.8196341,3.10313576 17.2094139,3.10313576 C18.4755754,3.10313576 19.6521904,3.48864975 20.6294999,4.14931195 C21.5250791,1.85609528 23.7463139,0.23258941 26.3446538,0.23258941 C29.0881,0.23258941 31.4111456,2.0424905 32.1972822,4.53961123 C33.2027764,3.8160417 34.4346151,3.39019039 35.7653699,3.39019039 C39.1551497,3.39019039 41.9031092,6.15334325 41.9031092,9.56186504 C41.9031092,12.9703868 39.1551497,15.7335397 35.7653699,15.7335397 C35.7176614,15.7335397 35.6700801,15.7329923 35.6226318,15.7319036 Z" id="Rectangle-1" fill="#484848" sketch:type="MSShapeGroup"></path>
            </g>
        </g>
    </g>
</svg>